<?xml version="1.0" encoding="utf-8"?>
<!-- Generator: Adobe Illustrator 22.1.0, SVG Export Plug-In . SVG Version: 6.00 Build 0)  -->
<svg version="1.1" id="Layer_1" xmlns="http://www.w3.org/2000/svg" xmlns:xlink="http://www.w3.org/1999/xlink" x="0px" y="0px"
	 viewBox="0 0 1335.5 780.6" style="enable-background:new 0 0 1335.5 780.6;" xml:space="preserve">
<style type="text/css">
	.st0{fill:#FFFFFF;}
	.st1{fill:none;}
</style>
<title>me-services-logo-cloud9-2</title>
<path class="st0" d="M792.6,379.2c0.7-3.8-0.3-6.3-3.8-6.3s-5.4,2.5-6,6.3l-1.4,8h9.8L792.6,379.2z"/>
<polygon class="st0" points="774.4,428.7 776.2,416.2 760.2,421.2 "/>
<path class="st0" d="M773.9,379.7c0.6-3.6-0.2-5.9-3.4-5.9s-5,2.3-5.6,5.9l-1.3,7.5h9L773.9,379.7z"/>
<polygon class="st0" points="758.9,143.1 726.6,153.2 755.4,163.4 "/>
<path class="st0" d="M728.1,268.7c-12.4,0-21.6,5.9-27.1,15.3c-2.4,4.3-4.1,9-4.9,13.9l-1.2,6.9h53.5l1.2-6.9
	c0.9-4.6,0.9-9.3,0-13.9C747.6,274.6,740.4,268.7,728.1,268.7z"/>
<path class="st0" d="M781.5,232.3h-94.1l4.3-24.6h94.1l1.1-6.1L699,166.4l4.7-26.4l99.1-34.9h-205L450.7,308.1l-75.6-202.9h-112
	l-74.3,421.3H296l43.6-247.3h0.6L418.3,485h1.8l151.3-205.8h0.6l-43.6,247.4h107.3l4.4-24.9l49.8-24.9l-41-24.9l4.4-25h94.2
	l2.6-14.8l48.5-12.3l-2.2,12.8l-10.9,3.4l-2.7,15.5l9.7,3.5l-2.2,12.7l-42.7-20.7l-4.2,24h-55.3v0.1l41.5,25.7l-0.1,0.4l-50.5,25.6
	v0.1h55l2-11.2h10.1l-4.2,23.8h7.7l3.7-21.2h10.2l-3.8,21.2h8.5l4.2-23.8h10.1l-6.2,35h325.6l16.1-91.5H902.4l13.6-77h165.5
	l16.2-92.1H932.2l12.2-69.2h215.5l16.1-91.6l-362.2,0.2l-2.6,14.9h36.5l-2.2,12.2h-36.4l-2.6,14.9h-10.1l2.9-16.7l-21.9,6.8
	l-5.5,31.4l19.6,7.1l0,0l30-15.5h-27.4l2.1-11.6h46.6l-2.3,13L810,177.5h27.5l-2.1,11.7h-46.2l-0.3,2h10l-5.1,29h7.6l3.7-21.2h10.2
	l-3.8,21.2h8.5l5.1-29h10.1l-7.2,41.1L781.5,232.3 M787.7,462.9l-30.5,15.8h27.5l-2.1,10.9h-46.6l2.3-12.1l30.7-15.1h-27.4l1.8-11.5
	H790L787.7,462.9z M807.5,351.5l-47,0.1l-4.1,23.3c2-7.3,6.2-13.3,13.6-13.3c4.1,0,7.8,2.1,9.4,7.3c3.2-5.8,7.8-8.4,12.5-8.4
	c8.9,0,12.1,7.5,10.3,17.8l-3.7,21.1h-46.4l-2.1,12.1h-94.2l12.8-72.8H689l-8.5,48.2H696l7.6-42.9h20.6l-7.6,42.9h17.2l8.5-48.2
	h20.4l-0.1,0.6l36.9-0.1l2.4-17h10.1L807.5,351.5z M812.5,320.3H766l-1.6,9h-94.2l5.5-31.5c1.6-9.8,5.1-19.2,10.3-27.7
	c9.8-15.7,25.6-26.4,46.4-26.4s32.8,10.6,37.1,26.4c1.9,7.5,2.3,15.3,1.2,23l1.5-8.7h10.1l-4.2,23.8h7.6l3.7-21.2h10.3l-3.8,21.1
	h8.5l4.2-23.8h10.1L812.5,320.3z M825.8,247.6h-27.3v0.1l20.5,11.8v0.2l-25,11.7v0.1h27.3l-2.1,11h-46.6l2.2-11.5l24.6-11.4
	l-20.2-11.4l2.2-11.5h46.6L825.8,247.6z"/>
<line class="st1" x1="635.6" y1="526.7" x2="635.6" y2="526.6"/>
<path class="st0" d="M165.4,633.2c15.5,11.9,29.4,16.4,47.4,16.4c14.9,0,24.4-5.1,26.2-15.1s-7.4-13.5-19.2-16.6
	c-27.9-6.3-49.1-16-43.9-45.6s32.3-40.5,58.5-40.5c16.6-0.1,33.1,3.3,48.3,10l-6,33.7c-18.4-10.2-36.3-13.5-45.9-13.5
	c-9.8,0-16.7,3.3-18,10.2c-1.5,8.2,5.1,11.5,20.4,15.1c24.1,5.9,48.3,15.7,43.1,45.4c-5.3,30.1-34.5,47-66.4,47
	c-17.2,0-34.5-3.5-50.7-12.7L165.4,633.2z"/>
<path class="st0" d="M279.9,677.4l25.2-143.1h110.6l-5.5,31.1h-73.2l-4.1,23.5h65.2l-5.5,31.3h-65.2l-4.6,26.2H396l-5.5,31.1
	L279.9,677.4z"/>
<path class="st0" d="M487.5,677.4l-15.2-51.7h-20.7l-9.1,51.7h-37.6l25.2-143.1h61.3c10.2,0,19.4,1.4,27,4.5
	c15.8,6.3,24.5,19.6,20.9,40.3c-1.7,10-6.4,19.2-13.6,26.4c-4.8,4.8-10.3,8.7-16.4,11.7l20.6,60.3H487.5z M480,595.8
	c3.9,0.1,7.8-0.6,11.4-2c5.3-2.2,8.9-6.5,10.1-13.3s-0.9-11-5.4-13.5c-3.3-1.6-7-2.3-10.6-2.2h-23.1l-5.5,31.1L480,595.8z"/>
<path class="st0" d="M571.3,677.4L543,534.2h39.3l14.9,98.8l49.7-98.8h39.3l-78.8,143.1H571.3z"/>
<path class="st0" d="M670.1,677.4l25.2-143.1h37.4l-25.2,143.1H670.1z"/>
<path class="st0" d="M835.6,672c-12.4,5.3-26.5,7.8-40,7.8c-42.9,0-69.5-32.5-62.2-74s45.4-74,88.3-74c13.5,0,26.8,2.5,37.3,7.8
	l-6,33.9c-8.9-6.1-21.9-10.2-34.8-10.2c-24.1,0-42.5,18.2-46.8,42.5s7.6,42.5,31.8,42.5c12.9,0,27.3-4.1,38.4-10.2L835.6,672z"/>
<path class="st0" d="M851,677.4l25.2-143.1h110.6l-5.5,31.1h-73.2l-4.2,23.5h65.2l-5.5,31.3h-65.2l-4.6,26.2h73.2l-5.5,31.1H851z"/>
<path class="st0" d="M984.2,633.2c15.5,11.9,29.4,16.4,47.4,16.4c14.9,0,24.4-5.1,26.2-15.1s-7.4-13.5-19.2-16.6
	c-27.9-6.3-49.1-16-43.9-45.6s32.3-40.5,58.5-40.5c16.6-0.1,33.1,3.3,48.3,10l-6,33.7c-18.4-10.2-36.3-13.5-45.9-13.5
	c-9.8,0-16.7,3.3-18,10.2c-1.4,8.2,5.1,11.5,20.4,15.1c24.1,5.9,48.3,15.7,43.1,45.4c-5.3,30.1-34.5,47-66.4,47
	c-17.2,0-34.6-3.5-50.7-12.7L984.2,633.2z"/>
</svg>
