<?xml version="1.0" encoding="utf-8"?>
<svg version="1.1" id="Layer_1" xmlns="http://www.w3.org/2000/svg" xmlns:xlink="http://www.w3.org/1999/xlink" x="0px" y="0px"
	 viewBox="0 0 120 150" style="enable-background:new 0 0 120 150;" xml:space="preserve">
<style type="text/css">
	.st0{fill:none;stroke:#000000;stroke-width:34;stroke-miterlimit:10;}
</style>
<path class="st0" d="M-2178.2-962.4"/>
<g>
	<path d="M56.9,27.5l-10.7,7.3c0.2,0.5,0.3,1,0.3,1.5c0,0.1,0,0.1,0,0.2L60,41.1c0.5-0.6,1.1-1.1,1.8-1.5l-2.1-11
		C58.5,28.4,57.6,28.1,56.9,27.5z"/>
	<path d="M68.8,43l17.4,1.5c0.2-0.5,0.4-0.9,0.8-1.3L81.3,35c-0.5,0.2-1,0.3-1.5,0.3c-1,0-1.9-0.3-2.7-0.8L68.5,42
		C68.6,42.3,68.8,42.6,68.8,43z"/>
	<path d="M74.8,30.2c0-0.1,0-0.1,0-0.2l-10.7-3.6c-0.5,0.6-1.1,1.2-1.8,1.5l2.1,11c0.8,0.1,1.5,0.3,2.2,0.7l8.6-7.5
		C74.9,31.7,74.8,31,74.8,30.2z"/>
	<path d="M68.6,45.8c-0.1,0.2-0.2,0.4-0.3,0.6L80,58.7c0.7-0.4,1.4-0.6,2.3-0.6c0.3,0,0.6,0,0.9,0.1l4.3-8.3
		c-0.7-0.7-1.2-1.6-1.4-2.6L68.6,45.8z"/>
	<path d="M103.1,39.5c0,0-0.3-1.2-0.4-1.7s-0.5-1.8-0.6-1.9c-6.9-20.1-29.3-28-46.8-25.4c-13,2-22.7,8.4-27.9,18.3
		c-1.2,2.3-2.1,4.6-2.7,7.1l-0.4,1.5c0,0,0,0.1,0,0.2L24,39.4c-0.4,3-0.5,6.1-0.1,9.4c0,0,0,0.1,0,0.2c0,0.2,0,0.6,0,0.9
		c0,1.2-0.3,2.4-0.8,3.5l-7.3,15.4c-0.6,1.3-0.5,2.9,0.3,4.1c0.8,1.2,2.1,2,3.6,2h4V95c0,3,2.3,5.3,5.3,5.3l11.6,0.2
		c1.3,0,2.3,1,2.3,2.3v5.5c0,1.1,0.9,1.9,1.9,1.9h41.9c0.6,0,1.2-0.3,1.6-0.8c0.3-0.5,0.4-1.2,0.2-1.8l-0.3-0.7
		c-3.3-8.2-3.8-15.3-1.3-21.1c1.4-3.4,3.4-5.3,4.8-6.6l0.4-0.4C103.2,67.3,107,54.2,103.1,39.5z M90.9,51.3c-0.3,0-0.6,0-0.9-0.1
		l-4.3,8.3c0.9,0.9,1.5,2.2,1.5,3.6c0,2.8-2.2,5-5,5s-5-2.2-5-5c0-0.9,0.3-1.7,0.7-2.5L66.2,48.4c-0.7,0.4-1.4,0.6-2.3,0.6
		c-2.8,0-5-2.2-5-5c0-0.1,0-0.1,0-0.2l-13.5-4.6c-0.9,1.3-2.4,2.1-4.1,2.1c-2.8,0-5-2.2-5-5s2.2-5,5-5c1.2,0,2.3,0.4,3.1,1.1
		l10.7-7.3c-0.2-0.5-0.3-1-0.3-1.5c0-2.8,2.2-5,5-5s5,2.2,5,5c0,0.1,0,0.1,0,0.2l10.7,3.6c0.9-1.3,2.4-2.1,4.1-2.1c2.8,0,5,2.2,5,5
		c0,1.2-0.4,2.3-1.1,3.1l5.7,8.2c0.5-0.2,1-0.3,1.5-0.3c2.8,0,5,2.2,5,5C95.9,49.1,93.6,51.3,90.9,51.3z"/>
</g>
</svg>
